<svg width="41" height="33" viewBox="0 0 41 33" fill="none" xmlns="http://www.w3.org/2000/svg">
<path fill-rule="evenodd" clip-rule="evenodd" d="M35 14H28V9H35V14Z" fill="black"/>
<path fill-rule="evenodd" clip-rule="evenodd" d="M24 14H17V9H24V14Z" fill="black"/>
<path fill-rule="evenodd" clip-rule="evenodd" d="M13 14H6V9H13V14Z" fill="black"/>
<path fill-rule="evenodd" clip-rule="evenodd" d="M35 28H28V23H35V28Z" fill="black"/>
<path fill-rule="evenodd" clip-rule="evenodd" d="M24 28H17V23H24V28Z" fill="black"/>
<path fill-rule="evenodd" clip-rule="evenodd" d="M13 28H6V23H13V28Z" fill="black"/>
<path fill-rule="evenodd" clip-rule="evenodd" d="M35 21H28V16H35V21Z" fill="black"/>
<path fill-rule="evenodd" clip-rule="evenodd" d="M24 21H17V16H24V21Z" fill="black"/>
<path fill-rule="evenodd" clip-rule="evenodd" d="M13 21H6V16H13V21Z" fill="black"/>
<path fill-rule="evenodd" clip-rule="evenodd" d="M33 7H30V0H33V7Z" fill="black"/>
<path fill-rule="evenodd" clip-rule="evenodd" d="M22 7H19V0H22V7Z" fill="black"/>
<path fill-rule="evenodd" clip-rule="evenodd" d="M11 7H8V0H11V7Z" fill="black"/>
<rect x="1" y="5" width="39" height="27" stroke="black" stroke-width="2"/>
</svg>
