<svg width="118" height="40" viewBox="0 0 118 40" fill="none" xmlns="http://www.w3.org/2000/svg">
<g clip-path="url(#clip0_15_252)">
<path d="M42.8509 13.3347L40.9447 12.5315L36.8245 4.4241L33.4741 3.37114L30.1113 3.93716C28.7462 2.85922 27.1897 1.99355 25.4334 1.34429C23.007 0.449485 20.2601 0 17.197 0H0V40H17.197C20.2227 40 22.9487 39.563 25.3751 38.6848C27.8015 37.8067 29.8658 36.5207 31.568 34.8184C31.7386 34.6478 31.9009 34.473 32.0591 34.294L33.0538 34.4439L42.8675 30.1113V14.371L42.8509 13.3347ZM27.4477 32.159L22.8322 31.4265H6.4884V16.4686L27.4477 13.7343V32.159ZM7.275 14.9121L13.7301 8.15732L32.5668 4.99012V6.23452L27.9014 12.2235L7.27083 14.9162L7.275 14.9121ZM41.4234 29.1749L32.8457 32.9622L28.8877 32.4087V13.3056L34.0152 6.72563V5.05254L35.809 5.6144L39.896 13.651L41.4234 14.2961V14.396V29.1707V29.1749Z" fill="black"/>
<path d="M12.6979 23.2233V21.209L10.6794 18.3831L8.66089 21.209V23.2233L10.6794 26.0493L12.6979 23.2233Z" fill="black"/>
<path d="M18.6828 22.441V20.4308L16.6643 17.6007L14.6499 20.4308V22.441L16.6643 25.2711L18.6828 22.441Z" fill="black"/>
<path d="M59.2197 22.982C59.8273 22.7615 60.3392 22.441 60.7637 22.0165C61.1883 21.592 61.5129 21.0676 61.7376 20.4433C61.9624 19.819 62.0747 19.0948 62.0747 18.2749C62.0747 17.5008 61.9624 16.8099 61.7376 16.1981C61.5129 15.5863 61.1924 15.0661 60.7721 14.6374C60.3517 14.2087 59.8398 13.8841 59.2322 13.6594C58.6245 13.4346 57.942 13.3223 57.1762 13.3223H52.8811V23.3108H57.1762C57.9337 23.3108 58.612 23.2026 59.2197 22.982ZM55.4865 21.0717V15.5614H56.7184C57.6132 15.5614 58.2957 15.7819 58.766 16.2273C59.2363 16.6684 59.4735 17.3468 59.4735 18.2624C59.4735 18.766 59.4236 19.1947 59.3196 19.5443C59.2155 19.8939 59.0574 20.1811 58.8368 20.4058C58.6162 20.6306 58.3332 20.797 57.9836 20.9011C57.634 21.0093 57.2136 21.0676 56.7184 21.0759H55.4865V21.0717Z" fill="black"/>
<path d="M69.3996 13.3223L67.4144 17.3801L65.4292 13.3223H62.4784L66.1117 19.5901V23.3108H68.7129V19.5901L72.3504 13.3223H69.3996Z" fill="black"/>
<path d="M76.2251 17.0846H76.2543L79.7211 23.3108H82.3931V13.3223H79.9459V19.4777H79.9168L76.4499 13.3223H73.778V23.3108H76.2251V17.0846Z" fill="black"/>
<path d="M87.0086 21.5171H90.4921L91.1081 23.3067H93.8216L90.0884 13.3181H87.4456L83.7124 23.3067H86.3843L87.0128 21.5171H87.0086ZM88.7441 16.0899H88.7733L89.8803 19.5859H87.6121L88.7441 16.0899Z" fill="black"/>
<path d="M97.5965 15.7278H97.6256L99.7232 23.3108H101.708L103.806 15.7278H103.835V23.3108H106.282V13.3223H102.449L100.73 19.9813H100.701L98.9824 13.3223H95.1493V23.3108H97.5965V15.7278Z" fill="black"/>
<path d="M117.644 16.2813C117.424 15.6529 117.107 15.1035 116.687 14.6291C116.267 14.1588 115.751 13.7884 115.143 13.5178C114.531 13.2473 113.836 13.1141 113.054 13.1141C112.271 13.1141 111.572 13.2515 110.964 13.5178C110.353 13.7884 109.841 14.1588 109.42 14.6291C109 15.0994 108.68 15.6487 108.463 16.2813C108.243 16.9098 108.134 17.5882 108.134 18.3165C108.134 19.0448 108.243 19.7232 108.463 20.3517C108.684 20.9801 109 21.5295 109.42 22.004C109.841 22.4742 110.357 22.8447 110.964 23.1152C111.576 23.3857 112.271 23.5189 113.054 23.5189C113.836 23.5189 114.535 23.3857 115.143 23.1152C115.755 22.8447 116.271 22.4742 116.687 22.004C117.107 21.5337 117.428 20.9843 117.644 20.3517C117.865 19.7232 117.973 19.0448 117.973 18.3165C117.973 17.5882 117.865 16.9098 117.644 16.2813ZM115.247 19.4069C115.164 19.7607 115.027 20.077 114.843 20.36C114.656 20.6388 114.415 20.8636 114.123 21.0301C113.828 21.1965 113.474 21.2839 113.054 21.2839C112.633 21.2839 112.28 21.2007 111.984 21.0301C111.689 20.8636 111.451 20.6388 111.264 20.36C111.077 20.0812 110.944 19.7648 110.86 19.4069C110.777 19.0532 110.736 18.6911 110.736 18.3165C110.736 17.9419 110.777 17.5799 110.86 17.2261C110.944 16.8723 111.081 16.556 111.264 16.2772C111.451 15.9983 111.693 15.7736 111.984 15.6071C112.28 15.4406 112.633 15.3574 113.054 15.3574C113.474 15.3574 113.832 15.4406 114.123 15.6071C114.419 15.7736 114.656 15.9983 114.843 16.2772C115.031 16.556 115.164 16.8723 115.247 17.2261C115.33 17.5799 115.372 17.9461 115.372 18.3165C115.372 18.6869 115.33 19.0532 115.247 19.4069Z" fill="black"/>
<path d="M54.5791 28.8253C54.5791 29.0084 54.55 29.1416 54.4875 29.2123C54.4251 29.2872 54.3377 29.3205 54.2212 29.3205C54.0963 29.3205 54.0006 29.2872 53.934 29.2206C53.8674 29.1541 53.8341 29.0583 53.8341 28.9335V28.5797H52.8977V28.7462C52.8977 28.9584 52.9185 29.1541 52.9643 29.3289C53.0101 29.5037 53.0808 29.6535 53.1849 29.7825C53.2889 29.9074 53.4263 30.0072 53.5969 30.078C53.7675 30.1487 53.9798 30.182 54.2337 30.182C55.1243 30.182 55.5696 29.7534 55.5696 28.8919V26.2823H54.575V28.8294L54.5791 28.8253Z" fill="black"/>
<path d="M58.8326 28.5756C58.8326 28.8211 58.7826 29.0084 58.6827 29.1333C58.5829 29.2581 58.4081 29.3206 58.1625 29.3206C57.9169 29.3206 57.7421 29.2581 57.6423 29.1333C57.5424 29.0084 57.4924 28.8211 57.4924 28.5756V26.274H56.4977V28.5131C56.4977 29.0667 56.6309 29.4787 56.8973 29.7576C57.1636 30.0322 57.584 30.1737 58.1625 30.1737C58.741 30.1737 59.1614 30.0364 59.4277 29.7576C59.6941 29.4829 59.8273 29.0667 59.8273 28.5131V26.274H58.8326V28.5756Z" fill="black"/>
<path d="M62.6782 28.742H63.3732C63.3441 28.9168 63.2525 29.0583 63.0986 29.1624C62.9446 29.2664 62.7406 29.3205 62.4951 29.3205C62.3328 29.3205 62.1996 29.2872 62.0872 29.2248C61.9748 29.1624 61.8833 29.075 61.8125 28.9668C61.7418 28.8585 61.6877 28.7379 61.6585 28.6047C61.6252 28.4673 61.6086 28.33 61.6086 28.1885C61.6086 28.047 61.6252 27.9055 61.6585 27.7723C61.6918 27.635 61.7418 27.5143 61.8125 27.4102C61.8833 27.302 61.9748 27.2188 62.0872 27.1522C62.1996 27.0897 62.3369 27.0564 62.4951 27.0564C62.699 27.0564 62.8696 27.1022 63.0111 27.1938C63.1527 27.2854 63.2317 27.4144 63.2484 27.5767H64.2431C64.2223 27.3395 64.1557 27.1314 64.0475 26.9566C63.9393 26.7818 63.8061 26.6403 63.6438 26.5279C63.4814 26.4155 63.3025 26.3323 63.1069 26.2782C62.9113 26.2241 62.7115 26.1991 62.5159 26.1991C62.2287 26.1991 61.9665 26.249 61.7293 26.3531C61.4921 26.4571 61.2923 26.5986 61.1258 26.7776C60.9593 26.9566 60.8345 27.1688 60.7429 27.4102C60.6555 27.6516 60.6097 27.9096 60.6097 28.1885C60.6097 28.4673 60.6555 28.7254 60.7429 28.9668C60.8303 29.2081 60.9593 29.4162 61.1258 29.5994C61.2923 29.7783 61.4921 29.9198 61.7293 30.0239C61.9624 30.1279 62.2287 30.1779 62.5159 30.1779C62.6033 30.1779 62.699 30.1695 62.7947 30.1529C62.8905 30.1363 62.9862 30.1071 63.0819 30.0655C63.1776 30.028 63.2692 29.9739 63.3566 29.9115C63.444 29.8491 63.5189 29.77 63.5855 29.6784L63.6438 30.0946H64.2847V28.0054H62.6824V28.742H62.6782Z" fill="black"/>
<path d="M66.1825 28.5131H68.0554V27.7432H66.1825V27.0731H68.2302V26.2782H65.1878V30.0947H68.2843V29.2415H66.1825V28.5131Z" fill="black"/>
<path d="M71.464 28.6297H71.4556L70.128 26.2782H69.1083V30.0947H70.0448V27.7182H70.0531L71.3807 30.0947H72.4004V26.2782H71.464V28.6297Z" fill="black"/>
<path d="M76.3625 26.7818C76.2002 26.6195 76.0046 26.4946 75.7757 26.4072C75.5426 26.3198 75.2804 26.2782 74.9891 26.2782H73.3493V30.0947H74.9891C75.2763 30.0947 75.5385 30.053 75.7715 29.9698C76.0046 29.8866 76.2002 29.7617 76.3625 29.5994C76.5248 29.4371 76.6497 29.2373 76.7329 28.9959C76.8203 28.7587 76.8619 28.4798 76.8619 28.1677C76.8619 27.8722 76.8203 27.6058 76.7329 27.3728C76.6455 27.1397 76.5248 26.9399 76.3625 26.7776V26.7818ZM75.8048 28.6546C75.7674 28.7878 75.7049 28.896 75.6217 28.9834C75.5385 29.0708 75.4303 29.1333 75.2971 29.1749C75.1639 29.2165 75.0016 29.2373 74.8143 29.2415H74.344V27.1355H74.8143C75.1556 27.1355 75.4178 27.2188 75.5967 27.3894C75.7757 27.5601 75.8673 27.8181 75.8673 28.1677C75.8673 28.3591 75.8464 28.5256 75.809 28.6588L75.8048 28.6546Z" fill="black"/>
<path d="M81.1612 26.2782H79.9251L78.6682 27.7432V26.2782H77.6735V30.0947H78.6682V28.921L79.0761 28.4923L80.0999 30.0947H81.336L79.7503 27.7806L81.1612 26.2782Z" fill="black"/>
<path d="M84.2077 28.5756C84.2077 28.8211 84.1577 29.0084 84.0579 29.1333C83.958 29.2581 83.7832 29.3206 83.5376 29.3206C83.2921 29.3206 83.1173 29.2581 83.0174 29.1333C82.9175 29.0084 82.8676 28.8211 82.8676 28.5756V26.274H81.8729V28.5131C81.8729 29.0667 82.006 29.4787 82.2724 29.7576C82.5388 30.0322 82.9591 30.1737 83.5376 30.1737C84.1161 30.1737 84.5365 30.0364 84.8028 29.7576C85.0692 29.4829 85.2024 29.0667 85.2024 28.5131V26.274H84.2077V28.5756Z" fill="black"/>
<path d="M87.1293 26.2782H86.1346V30.0947H88.9106V29.2415H87.1293V26.2782Z" fill="black"/>
<path d="M88.7317 27.1355H89.8721V30.0947H90.8667V27.1355H92.0071V26.2782H88.7317V27.1355Z" fill="black"/>
<path d="M95.0161 28.5756C95.0161 28.8211 94.9662 29.0084 94.8663 29.1333C94.7664 29.2581 94.5916 29.3206 94.346 29.3206C94.1005 29.3206 93.9257 29.2581 93.8258 29.1333C93.7259 29.0084 93.676 28.8211 93.676 28.5756V26.274H92.6813V28.5131C92.6813 29.0667 92.8145 29.4787 93.0808 29.7576C93.3472 30.0322 93.7675 30.1737 94.346 30.1737C94.9245 30.1737 95.3449 30.0364 95.6113 29.7576C95.8776 29.4829 96.0108 29.0667 96.0108 28.5131V26.274H95.0161V28.5756Z" fill="black"/>
<path d="M100.214 29.6743C100.202 29.5869 100.198 29.4995 100.194 29.4163C100.194 29.333 100.185 29.2748 100.181 29.2331C100.173 29.1457 100.16 29.05 100.139 28.9543C100.119 28.8544 100.085 28.7629 100.044 28.6796C100.002 28.5922 99.9438 28.5173 99.8772 28.4549C99.8106 28.3924 99.7274 28.3467 99.6275 28.3217V28.3092C99.8314 28.2301 99.9813 28.1011 100.077 27.9263C100.177 27.7515 100.223 27.5601 100.223 27.352C100.223 27.1605 100.185 26.994 100.106 26.8609C100.031 26.7235 99.9272 26.6153 99.8023 26.5279C99.6774 26.4405 99.5359 26.3781 99.3736 26.3365C99.2113 26.299 99.049 26.2782 98.8825 26.2782H96.9348V30.0947H97.9294V28.7046H98.6828C98.7993 28.7046 98.895 28.7254 98.9616 28.7712C99.0324 28.817 99.0865 28.8752 99.1239 28.9501C99.1614 29.0251 99.1905 29.1083 99.203 29.1999C99.2155 29.2914 99.228 29.3871 99.2363 29.4829C99.2363 29.512 99.2446 29.5536 99.2488 29.6077C99.2488 29.6618 99.2571 29.7201 99.2654 29.7825C99.2737 29.8449 99.2821 29.9032 99.2987 29.9615C99.3112 30.0197 99.332 30.0614 99.3528 30.0947H100.335C100.302 30.0572 100.277 30.0031 100.256 29.924C100.235 29.8449 100.218 29.7617 100.206 29.6743H100.214ZM99.1114 27.8223C99.0324 27.8972 98.92 27.9388 98.7702 27.9388H97.9378V27.0773H98.7285C98.8659 27.0773 98.9866 27.1106 99.0823 27.1772C99.1822 27.2438 99.228 27.3478 99.228 27.4893C99.228 27.6308 99.1905 27.7473 99.1114 27.8223Z" fill="black"/>
<path d="M103.365 27.6683H102.054V26.2782H101.059V30.0947H102.054V28.5256H103.365V30.0947H104.36V26.2782H103.365V27.6683Z" fill="black"/>
<path d="M106.336 26.2782L104.909 30.0947H105.929L106.17 29.4121H107.502L107.735 30.0947H108.771L107.344 26.2782H106.332H106.336ZM106.399 28.6755L106.832 27.3395H106.844L107.269 28.6755H106.403H106.399Z" fill="black"/>
<path d="M111.639 28.5756C111.639 28.8211 111.589 29.0084 111.489 29.1333C111.389 29.2581 111.214 29.3206 110.969 29.3206C110.723 29.3206 110.548 29.2581 110.448 29.1333C110.349 29.0084 110.299 28.8211 110.299 28.5756V26.274H109.304V28.5131C109.304 29.0667 109.437 29.4787 109.703 29.7576C109.97 30.0322 110.39 30.1737 110.969 30.1737C111.547 30.1737 111.968 30.0364 112.234 29.7576C112.5 29.4829 112.633 29.0667 112.633 28.5131V26.274H111.639V28.5756Z" fill="black"/>
<path d="M116.317 28.1469C116.213 28.0636 116.096 27.9929 115.963 27.9388C115.83 27.8847 115.697 27.8347 115.555 27.7973C115.418 27.7598 115.28 27.7224 115.147 27.6974C115.014 27.6682 114.898 27.635 114.789 27.6017C114.685 27.5684 114.602 27.5267 114.54 27.4768C114.477 27.431 114.448 27.3686 114.448 27.2937C114.448 27.2312 114.465 27.1771 114.494 27.1355C114.523 27.0939 114.565 27.0606 114.61 27.0356C114.656 27.0107 114.71 26.994 114.764 26.9815C114.823 26.969 114.877 26.9649 114.931 26.9649C115.006 26.9649 115.081 26.9732 115.156 26.9899C115.23 27.0065 115.297 27.0315 115.355 27.0689C115.414 27.1064 115.459 27.1522 115.497 27.2104C115.534 27.2687 115.547 27.3395 115.547 27.4269H116.541C116.541 27.2146 116.496 27.0273 116.408 26.8733C116.321 26.7193 116.204 26.5903 116.063 26.4904C115.921 26.3905 115.759 26.3156 115.572 26.2698C115.389 26.2199 115.201 26.1991 115.014 26.1991C114.835 26.1991 114.652 26.2199 114.469 26.2615C114.282 26.3031 114.115 26.3739 113.965 26.4655C113.815 26.557 113.695 26.6777 113.599 26.8275C113.503 26.9774 113.458 27.1522 113.458 27.3603C113.458 27.5351 113.491 27.6849 113.557 27.8056C113.624 27.9304 113.707 28.0303 113.815 28.1177C113.919 28.201 114.04 28.2717 114.173 28.3217C114.307 28.3758 114.44 28.4215 114.577 28.459C114.714 28.4965 114.852 28.5339 114.981 28.5631C115.11 28.5922 115.226 28.6296 115.33 28.6671C115.434 28.7046 115.518 28.7545 115.58 28.8044C115.643 28.8585 115.672 28.9293 115.672 29.0125C115.672 29.0833 115.655 29.1457 115.618 29.1957C115.58 29.2456 115.534 29.2872 115.48 29.3164C115.422 29.3455 115.36 29.3705 115.285 29.3829C115.21 29.3954 115.139 29.4038 115.064 29.4038C114.852 29.4038 114.681 29.3621 114.552 29.2747C114.423 29.1873 114.356 29.0333 114.344 28.8086H113.349C113.349 29.0542 113.395 29.2623 113.487 29.4329C113.578 29.6035 113.699 29.745 113.853 29.8532C114.007 29.9656 114.182 30.0447 114.381 30.0946C114.577 30.1446 114.789 30.1695 115.01 30.1695C115.23 30.1695 115.426 30.1487 115.626 30.1071C115.826 30.0655 116.005 29.9947 116.159 29.8949C116.313 29.795 116.437 29.666 116.533 29.5036C116.629 29.3413 116.675 29.1374 116.675 28.8918C116.675 28.7212 116.641 28.5755 116.579 28.4507C116.517 28.3258 116.429 28.2259 116.329 28.1385L116.317 28.1469Z" fill="black"/>
</g>
<defs>
<clipPath id="clip0_15_252">
<rect width="117.973" height="40" fill="white"/>
</clipPath>
</defs>
</svg>
