<svg version="1.1" id="Ebene_1" xmlns="http://www.w3.org/2000/svg" xmlns:xlink="http://www.w3.org/1999/xlink" x="0px" y="0px"
	 viewBox="0 0 200 200" style="enable-background:new 0 0 200 200;" xml:space="preserve">
<path class="st0" d="M53.09,18.33C47.38,30.31,37.84,39.94,29.81,50.5S14.96,73.71,16.22,86.92c1.57,16.53,15.06,29.16,21.8,44.34
	c6.54,14.73,6.38,32.28-0.42,46.9c47.24,2.74,94.9-6.99,141.79-0.59c-8.01-14.54-16.06-29.17-21.45-44.86
	c-1.97-5.73-3.59-11.63-4.09-17.68c-0.18-2.11-0.2-4.32,0.65-6.26c0.81-1.83,2.31-3.25,3.78-4.61
	c10.01-9.29,20.03-18.57,30.04-27.86c-10.14-16.16-29.85-24-48.84-25.73c-19-1.72-38.04,1.62-57.09,2.64
	c-3.28,0.18-6.86,0.19-9.46-1.81c6.44-14.65,23.04-21.78,33.29-34.07C88.9,9.85,68.19,10.75,53.09,18.33z"/>
</svg>
