
<svg version="1.1" id="Ebene_1" xmlns="http://www.w3.org/2000/svg" xmlns:xlink="http://www.w3.org/1999/xlink" x="0px" y="0px"
	 viewBox="0 0 200 200" style="enable-background:new 0 0 200 200;" xml:space="preserve">
<path id="SVG_x5F_1" class="st0" d="M91.66,36.08c-7.89-8.9-24.15,0.07-32.02,8.98S48.22,65.82,45.4,77.37
	c-1.95,7.97-3.72,16.13-7.74,23.29c-3.35,5.95-8.15,11-11.43,16.99c-8.19,15-4.92,35.35,7.55,47.03
	c7.88,7.37,19.59,11.23,29.82,7.79c12.54-4.23,19.37-17.4,29.25-26.2c8.54-7.6,19.53-11.97,30.68-14.49
	c8.07-1.83,16.32-2.77,24.31-4.92s15.87-5.65,21.51-11.69c3.84-4.11,6.46-9.21,8.43-14.47c2.75-7.34,4.31-15.23,3.66-23.04
	c-1.43-17.29-14.67-32.96-31.47-37.27c-14.38-3.69-29.44,0.41-44.24,1.69C100.24,42.56,95.85,40.81,91.66,36.08z"/>
</svg>
