<?xml version="1.0" encoding="UTF-8"?><svg id="b" xmlns="http://www.w3.org/2000/svg" viewBox="0 0 140.15 29.69"><defs><style>.d{fill:#181716;}</style></defs><g id="c"><path class="d" d="m58.7,16.6v8.85h-1.05v-.87h-.03c-.17.33-.43.58-.79.76-.36.17-.78.26-1.26.26-.88,0-1.6-.31-2.14-.93-.54-.62-.81-1.43-.81-2.44s.26-1.82.79-2.42c.53-.61,1.23-.91,2.13-.91.42,0,.82.09,1.21.26.38.17.68.42.87.74h.03v-3.3h1.05Zm-4.96,5.7c0,.7.18,1.27.55,1.71.36.44.84.66,1.44.66s1.08-.22,1.43-.66.53-1.03.53-1.75-.18-1.31-.53-1.76-.85-.67-1.51-.67c-.61,0-1.08.22-1.41.66-.33.44-.5,1.05-.5,1.82Z"/><path class="d" d="m62.81,18.89c.91,0,1.62.33,2.13.98.51.65.77,1.51.77,2.57v.12h-4.8v.08c0,.62.18,1.11.53,1.48s.84.55,1.46.55c.92,0,1.47-.42,1.66-1.25h1.04c-.14.72-.45,1.26-.93,1.63-.48.37-1.08.55-1.81.55-1.01,0-1.77-.33-2.29-.99-.52-.66-.78-1.46-.78-2.41s.29-1.74.86-2.37,1.29-.94,2.16-.94Zm1.79,2.74c-.03-.52-.22-.95-.56-1.3s-.77-.51-1.3-.51c-.49,0-.9.16-1.24.49-.34.33-.53.77-.58,1.32h3.68Z"/><path class="d" d="m70.23,18.89v1.12c-.79,0-1.38.21-1.75.63-.38.42-.56,1.07-.56,1.95v2.86h-1.05v-6.41h.99v1.35h.03c.49-1,1.22-1.5,2.21-1.5h.15Z"/><path class="d" d="m77.17,16.39c1,0,1.79.25,2.38.74s.88,1.18.88,2.06h-1.12c-.13-1.21-.86-1.81-2.2-1.81-.64,0-1.13.13-1.47.39-.34.26-.51.63-.51,1.12,0,.31.13.57.38.81s1.07.49,2.46.77c.95.19,1.66.49,2.13.89.47.4.7.96.7,1.67,0,.83-.34,1.47-1.02,1.93s-1.49.7-2.44.71c-1.12,0-2-.28-2.67-.84-.66-.56-.99-1.32-.99-2.29h1.12c0,.69.25,1.21.72,1.58.48.37,1.09.55,1.85.55.72,0,1.27-.14,1.66-.42.39-.28.58-.68.58-1.2,0-.43-.19-.77-.56-1.02s-1.02-.46-1.93-.64c-1.3-.26-2.15-.57-2.56-.94s-.61-.86-.61-1.48c0-.79.29-1.41.88-1.88.59-.47,1.36-.71,2.33-.71Z"/><path class="d" d="m83.51,17.12v1.92h1.28v.93h-1.28v4.02c0,.19.04.33.11.41.07.08.26.12.56.12h.61v.93h-.87c-.55,0-.93-.09-1.14-.27s-.32-.54-.32-1.07v-4.14h-1.09v-.93h1.09v-1.92h1.05Z"/><path class="d" d="m88.59,18.89c1.59,0,2.39.57,2.39,1.72v3.7c0,.24.11.36.33.36.11,0,.21-.02.32-.06v.82c-.21.12-.46.17-.76.17-.6,0-.89-.33-.89-.99-.56.66-1.31.99-2.26.99-.66,0-1.18-.15-1.56-.46-.38-.31-.56-.75-.56-1.33s.19-1.02.56-1.36c.37-.34,1.24-.59,2.59-.77.46-.06.78-.15.94-.27.16-.12.24-.29.24-.53,0-.7-.48-1.05-1.43-1.05-.52,0-.91.1-1.17.29-.26.19-.4.5-.43.92h-1.05c.08-1.43.99-2.15,2.73-2.15Zm-1.86,4.84c0,.3.11.53.32.69.21.17.52.25.92.25.57,0,1.04-.14,1.41-.42.37-.28.55-.62.55-1v-1.1c-.19.13-.44.22-.74.26l-1.08.16c-.47.07-.82.19-1.04.38-.22.19-.33.45-.33.79Z"/><path class="d" d="m98.32,16.6v8.85h-1.05v-.87h-.03c-.17.33-.43.58-.79.76-.36.17-.78.26-1.26.26-.88,0-1.6-.31-2.14-.93-.54-.62-.81-1.43-.81-2.44s.26-1.82.79-2.42c.53-.61,1.23-.91,2.13-.91.42,0,.82.09,1.21.26.38.17.68.42.87.74h.03v-3.3h1.05Zm-4.96,5.7c0,.7.18,1.27.55,1.71.36.44.84.66,1.44.66s1.08-.22,1.43-.66.53-1.03.53-1.75-.18-1.31-.53-1.76-.85-.67-1.51-.67c-.61,0-1.08.22-1.41.66-.33.44-.5,1.05-.5,1.82Z"/><path class="d" d="m101.39,17.12v1.92h1.28v.93h-1.28v4.02c0,.19.04.33.11.41.07.08.26.12.56.12h.61v.93h-.87c-.55,0-.93-.09-1.14-.27s-.32-.54-.32-1.07v-4.14h-1.09v-.93h1.09v-1.92h1.05Z"/><path class="d" d="m113.19,16.6v.99l-5.49,6.87h5.64v.99h-7.04v-.99l5.51-6.87h-5.08v-.99h6.47Z"/><path class="d" d="m115.34,19.04v4.37c0,.37.12.68.35.91s.55.35.96.35c.62,0,1.09-.18,1.41-.55.32-.36.48-.84.48-1.43v-3.66h1.05v6.41h-.99v-1.02h-.02c-.44.78-1.13,1.17-2.08,1.17-1.47,0-2.21-.76-2.21-2.28v-4.28h1.05Zm.99-2.34v1.29h-1.12v-1.29h1.12Zm2.33,0v1.29h-1.12v-1.29h1.12Z"/><path class="d" d="m124.51,18.89v1.12c-.79,0-1.38.21-1.75.63-.38.42-.56,1.07-.56,1.95v2.86h-1.05v-6.41h.99v1.35h.03c.49-1,1.22-1.5,2.21-1.5h.15Z"/><path class="d" d="m126.54,16.6v1.29h-1.05v-1.29h1.05Zm0,2.44v6.41h-1.05v-6.41h1.05Z"/><path class="d" d="m130.86,18.89c.78,0,1.41.18,1.9.55.49.37.78.92.87,1.66h-1.09c-.18-.85-.71-1.28-1.59-1.28-.65,0-1.15.22-1.49.65-.34.43-.51,1.05-.51,1.85,0,.7.17,1.27.5,1.7.33.43.79.64,1.38.64.51,0,.92-.14,1.22-.41.3-.27.48-.66.54-1.15h1.08c-.12.8-.42,1.42-.9,1.85-.48.43-1.13.64-1.93.64-.93,0-1.66-.29-2.2-.87-.54-.58-.81-1.38-.81-2.4s.27-1.89.81-2.51c.54-.62,1.28-.92,2.21-.92Z"/><path class="d" d="m135.9,16.6v3.38h.02c.15-.35.41-.62.78-.81s.79-.29,1.24-.29c1.47,0,2.21.76,2.21,2.29v4.27h-1.05v-4.38c0-.36-.11-.65-.33-.89-.22-.24-.55-.36-.98-.36-.6,0-1.06.18-1.39.55-.33.36-.5.84-.5,1.43v3.66h-1.05v-8.85h1.05Z"/><path class="d" d="m59.26,1.37v.99h-4.93v2.81h4.6v.99h-4.6v3.06h4.97v.99h-6.15V1.37h6.11Z"/><path class="d" d="m61.67,1.37v1.29h-1.05v-1.29h1.05Zm0,2.44v6.41h-1.05V3.82h1.05Z"/><path class="d" d="m66.37,3.67c1.47,0,2.21.76,2.21,2.29v4.27h-1.05v-4.38c0-.36-.11-.65-.33-.89-.22-.24-.55-.36-.98-.36-.6,0-1.07.18-1.4.55-.33.36-.49.84-.49,1.43v3.66h-1.05V3.82h.99v1.02h.03c.46-.78,1.16-1.17,2.08-1.17Z"/><path class="d" d="m72.81,3.67c.91,0,1.62.33,2.13.98.51.65.77,1.51.77,2.57v.12h-4.8v.08c0,.62.18,1.11.53,1.48s.84.55,1.46.55c.92,0,1.47-.42,1.66-1.25h1.04c-.14.72-.45,1.26-.93,1.63-.48.37-1.08.55-1.81.55-1.01,0-1.77-.33-2.29-.99-.52-.66-.78-1.46-.78-2.41s.29-1.74.86-2.37,1.29-.94,2.16-.94Zm1.79,2.74c-.03-.52-.22-.95-.56-1.3s-.77-.51-1.3-.51c-.49,0-.9.16-1.24.49-.34.33-.53.77-.58,1.32h3.68Z"/><path class="d" d="m41.54,19.53c-.17,0-.32.04-.46.11-.19-.69-.38-1.41-.57-2.12l.81-1.1c.06-.07,1.47-1.83,1.47-3.42,0-1.76-1.18-2.38-2.18-2.38-.51,0-1.23.2-1.69.77-.44.54-.56,1.28-.36,2.19.04.17.52,1.97,1,3.75l-.84,1.13-1.79-6.83,4.01-2.97c1.12-.87,1.76-2.18,1.76-3.59,0-2.15-1.49-3.97-3.57-4.43V.19l-.7-.19v.53l-2.33-.13h-.71v1.78h.71c.24,0,.43.19.43.43s-.19.43-.43.43l-2.49-.27.19.72,2.3.25c.62,0,1.13-.51,1.13-1.13s-.51-1.13-1.13-1.13v-.38s2.33.13,2.33.13v2.17c0,.25-.1.47-.27.64-.17.16-.4.25-.65.23l-2.54-.15h0s0,0,0,0l.21.78c-.71.45-1.31,1.05-1.75,1.75l-1.03-2.22c.13-.25.2-.53.2-.82,0-.98-.8-1.78-1.78-1.78-.67,0-1.25.38-1.55.92l.19-2.21H13.35l.19,2.21c-.3-.55-.88-.92-1.55-.92-.98,0-1.78.8-1.78,1.78,0,.29.07.57.2.82l-1.03,2.22c-.44-.7-1.04-1.29-1.75-1.75l.02-.07h0l.19-.71-2.54.15c-.24.01-.48-.07-.65-.23-.17-.16-.27-.39-.27-.64V1.24l2.33-.13v.38s0,0,0,0c-.62,0-1.13.51-1.13,1.13s.5,1.13,1.2,1.13h0l2.22-.24.19-.73-2.49.27c-.24,0-.43-.19-.43-.43s.19-.43.43-.43h.71V.4l-3.04.14V0l-.7.19v.46C1.59,1.11.1,2.93.1,5.08c0,1.41.64,2.72,1.76,3.6l4,2.96-1.79,6.83-.84-1.13c.48-1.78.96-3.58,1-3.75.2-.91.08-1.65-.36-2.19-.46-.57-1.18-.77-1.69-.77-1.01,0-2.18.62-2.18,2.38,0,1.59,1.4,3.35,1.45,3.4l.83,1.12c-.19.71-.39,1.43-.57,2.12-.14-.07-.29-.11-.46-.11-.61,0-1.1.49-1.1,1.1s.49,1.1,1.1,1.1,1.09-.48,1.1-1.09c.12-.43.34-1.27.6-2.22l.84,1.14-2.09,7.97c-.03.13-.04.26-.04.39,0,.98.8,1.78,1.78,1.78s1.78-.8,1.78-1.78c0-.44-.17-.86-.45-1.19l1.92-3.05,3.71,5.27c.33.47.88.75,1.45.75.98,0,1.78-.8,1.78-1.78s-.9-1.84-1.91-1.77l-2.53-7.14c-.24-.65-.77-1.07-1.47-1.18-.13-.02-.26-.02-.38-.01l1.77-3.79,2.28,1.68c.32.25.69.38,1.09.38.12,0,.24-.03.36-.05l.64,6.63c.39,3.74,4.1,7.03,7.93,7.03h0c3.83,0,7.53-3.29,7.93-7.03l.64-6.62c.12.02.24.05.36.05.4,0,.78-.13,1.09-.37l2.28-1.69,1.77,3.79c-.13,0-.25,0-.38.01-.7.1-1.23.53-1.47,1.18l-2.53,7.13c-1.01-.07-1.91.75-1.91,1.77,0,.98.8,1.78,1.78,1.78.58,0,1.12-.28,1.45-.75l3.71-5.27,1.92,3.05c-.29.32-.45.74-.45,1.19,0,.98.8,1.78,1.78,1.78s1.78-.8,1.78-1.78c0-.13-.01-.27-.05-.41l-2.09-7.95.84-1.14c.26.96.48,1.79.6,2.23,0,.6.49,1.08,1.1,1.08s1.1-.49,1.1-1.1-.49-1.1-1.1-1.1ZM2.57,16.44l-.42-.57c-.35-.44-1.27-1.8-1.27-2.87,0-1.36.91-1.5,1.31-1.5.3,0,.74.12,1.01.45.26.33.32.82.19,1.46-.03.13-.37,1.43-.81,3.04ZM30.81,2.72c.5,0,.9.41.9.9,0,.19-.06.38-.18.53l-.15.21,1.54,3.3c-.22.57-.35,1.17-.38,1.81l-2.58-5.53c-.04-.1-.06-.21-.06-.32,0-.5.41-.9.9-.9Zm-4.47-1.46h.82l-.07,1.39h.7l.07-1.39h.83l-.18,2.12h-2.25l.08-2.12Zm-.1,2.82h2.21l-.09,1.11h-2.16l.04-1.11Zm2.06,1.81l-.11,1.31h-13.57l-.11-1.31h13.79Zm-8.04-1.81h2.29v1.11h-2.27v-1.11Zm3.02-2.82h.83l-.03,1.39h.7l.03-1.39h.83l-.08,2.12h-2.31l.03-2.12Zm-.03,2.82h2.29l-.04,1.11h-2.26v-1.11Zm-2.19-2.82v1.39h.7v-1.39h.83l-.03,2.12h-2.31l-.03-2.12h.83Zm-1.48,3.93h-2.26l-.04-1.11h2.29v1.11Zm-1.58-3.93l.03,1.39h.7l-.03-1.39h.83l.03,2.12h-2.31l-.08-2.12h.83Zm-1.39,3.93h-2.16l-.09-1.11h2.21l.04,1.11Zm-1.66-3.93l.07,1.39h.7l-.07-1.39h.82l.08,2.12h-2.25l-.18-2.12h.83Zm-1.29,2.99s0-.03.01-.04l.31,3.69h14.86l.31-3.7s.01.05.02.07l3.3,7.08-1.66,1.23c-.16-.04-.33-.05-.49-.05l.31-3.25H12.17l.31,3.25c-.17,0-.33,0-.49.05l-1.66-1.23,3.31-7.1Zm-2.23.11l-.16-.21c-.11-.15-.17-.34-.17-.53,0-.5.4-.9.9-.9s.9.41.9.9c0,.11-.02.22-.05.29l-2.59,5.56c-.03-.63-.16-1.24-.38-1.81l1.54-3.3Zm-3.83,14.32c.22.03.6.15.77.61l2.8,7.9.41-.14c.09-.03.18-.05.28-.05.5,0,.9.4.9.9s-.41.9-.9.9c-.29,0-.57-.14-.74-.38l-3.92-5.57.29-.45c.17-.27.25-.58.25-.9,0-.82-.57-1.5-1.34-1.68l.44-.94c.11-.14.42-.25.76-.2Zm-2.24,1.3l.49.7c.5-.1,1.01.3,1.01.82,0,.16-.04.31-.12.44l-3.13,4.98.35.24c.25.17.39.45.39.75,0,.5-.4.9-.9.9s-.9-.41-.9-.9c0-.07,0-.13.02-.18l4.08-15.53,1.75,1.29-3.03,6.49Zm7.62-4.93c-.31.21-.75.2-1.06-.05L2.39,7.97c-.9-.7-1.42-1.76-1.42-2.9,0-1.67,1.12-3.09,2.69-3.52v1.86c0,.44.17.85.49,1.15.29.28.67.43,1.08.43.03,0,.06,0,.09,0l.72-.04c.1.03.29.1.34.12,1.92.76,3.17,2.6,3.17,4.67,0,.33-.04.66-.11.99l-2-1.48-.24.91,4.65,3.44.23-.1c.23-.1.49-.1.71,0,.34.14.56.47.56.83,0,.3-.15.58-.4.75Zm.43-2.25l-.19-1.94,2.2,2.1h-1.76c-.07-.06-.16-.11-.24-.17Zm.72.87h2.02l1.32,1.26h-3.34c.08-.2.13-.41.13-.63s-.05-.43-.13-.63Zm-.45,1.96h4.51l1.32,1.26h-5.71l-.12-1.26Zm.19,1.96h6.37l1.32,1.26h-7.57l-.12-1.26Zm.19,1.96h8.23l1.32,1.26h-9.43l-.12-1.26Zm.29,3l-.1-1.04h10.09l1.32,1.26h-11.27c-.01-.08-.03-.15-.04-.23Zm7.06,6.24c-1.45,0-2.87-.53-4.06-1.39h8.11c-1.19.86-2.61,1.39-4.06,1.39Zm4.89-2.09h-9.79c-.4-.38-.77-.81-1.07-1.26h11.94c-.31.46-.67.88-1.07,1.26Zm-11.27-1.96c-.21-.41-.38-.83-.49-1.26h11.86l1.32,1.26h-12.68Zm13.53-10.45c0,.5.22.96.58,1.29l-.68,6.96c-.05.47-.17.94-.33,1.39l-14.39-13.79h15.93l-.26,2.65c-.52.32-.85.87-.85,1.49Zm2.33.71c-.3.24-.74.25-1.05.04-.25-.17-.4-.45-.4-.75,0-.37.22-.69.56-.83.22-.09.48-.09.71,0l.23.1,4.65-3.44-.24-.91-2,1.48c-.07-.33-.11-.65-.11-.99,0-2.07,1.24-3.9,3.17-4.67.05-.02.24-.09.34-.12l.72.04s.06,0,.09,0c.41,0,.79-.15,1.08-.43.32-.3.49-.7.49-1.15v-1.86c1.58.44,2.69,1.86,2.69,3.52,0,1.14-.52,2.2-1.41,2.89l-9.52,7.05Zm.8,13.41c-.17.24-.44.38-.74.38-.5,0-.9-.41-.9-.9,0-.6.65-1.03,1.18-.86l.41.14,2.8-7.89c.17-.46.55-.58.77-.61.33-.05.64.06.76.2l.44.94c-.76.18-1.34.86-1.34,1.68,0,.32.09.63.26.9l.28.45-3.93,5.57Zm8.55-.72c.01.06.02.13.02.2,0,.5-.4.9-.9.9s-.9-.41-.9-.9c0-.3.15-.58.39-.74l.35-.24-3.13-4.97c-.08-.13-.13-.29-.13-.44,0-.52.51-.92,1.01-.82l.49-.7-3.03-6.49,1.75-1.29,4.07,15.51Zm-.02-11.27c-.43-1.61-.78-2.91-.81-3.04-.14-.64-.08-1.13.19-1.46.27-.33.71-.45,1.01-.45.39,0,1.31.15,1.31,1.5,0,1.28-1.26,2.85-1.28,2.88l-.41.56Z"/><path class="d" d="m81.1,1.37v8.86h-1.18V1.37h1.18Z"/><path class="d" d="m85.68,3.67c1.47,0,2.21.77,2.21,2.3v4.27h-1.06v-4.38c0-.36-.11-.65-.34-.89-.22-.24-.55-.36-.98-.36-.6,0-1.07.18-1.4.55-.33.36-.49.84-.49,1.43v3.66h-1.06V3.82h.99v1.02h.03c.46-.78,1.16-1.17,2.09-1.17Z"/><path class="d" d="m91.62,3.67c.87,0,1.51.17,1.93.5s.65.84.69,1.51h-1.06c-.03-.36-.18-.62-.45-.81s-.61-.27-1.04-.27-.76.07-1,.21c-.24.14-.37.34-.37.61,0,.24.11.43.32.58s.54.27.98.37l.99.22c.62.14,1.09.35,1.42.63.32.28.48.66.48,1.15,0,.64-.24,1.13-.73,1.49-.49.36-1.15.53-2,.53s-1.47-.18-1.95-.54-.74-.9-.77-1.63h1.06c.02.4.17.7.47.92.3.22.72.32,1.25.32,1.03,0,1.55-.32,1.55-.96,0-.28-.13-.5-.38-.67-.25-.17-.79-.34-1.62-.51-.79-.16-1.35-.38-1.69-.66s-.51-.67-.51-1.17c0-.55.22-.99.65-1.32s1.02-.5,1.76-.5Z"/><path class="d" d="m97.15,1.89v1.92h1.28v.93h-1.28v4.02c0,.19.04.33.11.41.07.08.26.12.56.12h.61v.93h-.87c-.55,0-.93-.09-1.14-.27s-.32-.54-.32-1.07v-4.15h-1.09v-.93h1.09v-1.92h1.06Z"/><path class="d" d="m100.63,1.37v1.29h-1.06v-1.29h1.06Zm0,2.45v6.42h-1.06V3.82h1.06Z"/><path class="d" d="m103.71,1.89v1.92h1.28v.93h-1.28v4.02c0,.19.04.33.11.41.07.08.26.12.56.12h.61v.93h-.87c-.55,0-.93-.09-1.14-.27s-.32-.54-.32-1.07v-4.15h-1.09v-.93h1.09v-1.92h1.06Z"/><path class="d" d="m107.08,3.82v4.37c0,.37.12.68.35.91s.55.35.96.35c.62,0,1.09-.18,1.42-.55.32-.36.48-.84.48-1.43v-3.66h1.06v6.42h-.99v-1.02h-.02c-.44.78-1.13,1.17-2.09,1.17-1.47,0-2.21-.76-2.21-2.28V3.82h1.06Z"/><path class="d" d="m114.39,1.89v1.92h1.28v.93h-1.28v4.02c0,.19.04.33.11.41.07.08.26.12.56.12h.61v.93h-.87c-.55,0-.93-.09-1.14-.27s-.32-.54-.32-1.07v-4.15h-1.09v-.93h1.09v-1.92h1.06Z"/><path class="d" d="m117.87,1.37v1.29h-1.06v-1.29h1.06Zm0,2.45v6.42h-1.06V3.82h1.06Z"/><path class="d" d="m122.14,3.67c.96,0,1.72.31,2.28.92.56.61.84,1.43.84,2.45s-.28,1.78-.84,2.41c-.56.63-1.32.94-2.28.94s-1.7-.3-2.27-.91-.85-1.42-.85-2.44.28-1.84.84-2.45c.56-.61,1.32-.91,2.28-.91Zm-2,3.36c0,.72.19,1.3.56,1.75s.85.67,1.44.67,1.06-.22,1.43-.66c.38-.44.57-1.03.57-1.76s-.19-1.31-.56-1.76c-.37-.45-.86-.68-1.45-.68s-1.05.23-1.42.68c-.38.45-.57,1.04-.57,1.75Z"/><path class="d" d="m129.61,3.67c1.47,0,2.21.77,2.21,2.3v4.27h-1.06v-4.38c0-.36-.11-.65-.34-.89-.22-.24-.55-.36-.98-.36-.6,0-1.07.18-1.4.55-.33.36-.49.84-.49,1.43v3.66h-1.06V3.82h.99v1.02h.03c.46-.78,1.16-1.17,2.09-1.17Z"/></g></svg>