{
    "asset" : {
        "generator" : "Khronos glTF Blender I/O v3.3.32",
        "version" : "2.0"
    },
    "extensionsUsed" : [
        "KHR_materials_specular",
        "KHR_materials_ior"
    ],
    "scene" : 0,
    "scenes" : [
        {
            "name" : "Scene",
            "nodes" : [
                0
            ]
        }
    ],
    "nodes" : [
        {
            "mesh" : 0,
            "name" : "Stern",
            "scale" : [
                0.10000000149011612,
                0.20000000298023224,
                0.10000000149011612
            ],
            "translation" : [
                0,
                0,
                4
            ]
        }
    ],
    "materials" : [
        {
            "doubleSided" : true,
            "extensions" : {
                "KHR_materials_specular" : {
                    "specularColorFactor" : [
                        0,
                        0,
                        0
                    ]
                },
                "KHR_materials_ior" : {
                    "ior" : 1.4500000476837158
                }
            },
            "name" : "Stahl_-_satiniert",
            "pbrMetallicRoughness" : {
                "baseColorFactor" : [
                    0.6274510025978088,
                    0.6274510025978088,
                    0.6274510025978088,
                    1
                ],
                "metallicFactor" : 0
            }
        }
    ],
    "meshes" : [
        {
            "name" : "Stern",
            "primitives" : [
                {
                    "attributes" : {
                        "POSITION" : 0,
                        "NORMAL" : 1,
                        "TEXCOORD_0" : 2
                    },
                    "indices" : 3,
                    "material" : 0
                }
            ]
        }
    ],
    "accessors" : [
        {
            "bufferView" : 0,
            "componentType" : 5126,
            "count" : 156,
            "max" : [
                27.58343505859375,
                1.5,
                -21.5361270904541
            ],
            "min" : [
                -27.58343505859375,
                -1.5,
                -74.00293731689453
            ],
            "type" : "VEC3"
        },
        {
            "bufferView" : 1,
            "componentType" : 5126,
            "count" : 156,
            "type" : "VEC3"
        },
        {
            "bufferView" : 2,
            "componentType" : 5126,
            "count" : 156,
            "type" : "VEC2"
        },
        {
            "bufferView" : 3,
            "componentType" : 5123,
            "count" : 240,
            "type" : "SCALAR"
        }
    ],
    "bufferViews" : [
        {
            "buffer" : 0,
            "byteLength" : 1872,
            "byteOffset" : 0,
            "target" : 34962
        },
        {
            "buffer" : 0,
            "byteLength" : 1872,
            "byteOffset" : 1872,
            "target" : 34962
        },
        {
            "buffer" : 0,
            "byteLength" : 1248,
            "byteOffset" : 3744,
            "target" : 34962
        },
        {
            "buffer" : 0,
            "byteLength" : 480,
            "byteOffset" : 4992,
            "target" : 34963
        }
    ],
    "buffers" : [
        {
            "byteLength" : 5472,
            "uri" : "data:application/octet-stream;base64,"
        }
    ]
}
