# WaveFront *.obj file (generated by Autodesk ATF)

mtllib Stern_1.mtl

g Stern_1

v 19.021130 51.180340 -1.500000
v 4.755283 51.545085 -1.500000
v 0.000000 65.000000 -1.500000
v -4.755283 51.545085 -1.500000
v -19.021130 51.180340 -1.500000
v -7.694209 42.500000 -1.500000
v -11.755705 28.819660 -1.500000
v 0.000000 36.909830 -1.500000
v 11.755705 28.819660 -1.500000
v 7.694209 42.500000 -1.500000
v 6.895859 54.491336 -1.500000
v 27.583436 53.962402 -1.500000
v 11.157734 41.374632 -1.500000
v 17.047501 21.536128 -1.500000
v -0.000000 33.268064 -1.500000
v -17.047501 21.536128 -1.500000
v -11.157734 41.374632 -1.500000
v -27.583436 53.962402 -1.500000
v -6.895859 54.491336 -1.500000
v -0.000000 74.002941 -1.500000
v 4.755283 51.545085 1.500000
v 0.000000 65.000000 1.500000
v -4.755283 51.545085 1.500000
v -19.021130 51.180340 1.500000
v -7.694209 42.500000 1.500000
v -11.755705 28.819660 1.500000
v 0.000000 36.909830 1.500000
v 11.755705 28.819660 1.500000
v 7.694209 42.500000 1.500000
v 19.021130 51.180340 1.500000
v 27.583436 53.962402 1.500000
v 11.157734 41.374632 1.500000
v 17.047501 21.536128 1.500000
v -0.000000 33.268064 1.500000
v -17.047501 21.536128 1.500000
v -11.157734 41.374632 1.500000
v -27.583436 53.962402 1.500000
v -6.895859 54.491336 1.500000
v -0.000000 74.002941 1.500000
v 6.895859 54.491336 1.500000
vt -0.475528 0.377555 0.000000
vt -0.689586 0.672180 0.000000
vt -1.902113 0.341081 0.000000
vt -2.758344 0.619287 0.000000
vt -1.115773 -0.639490 0.000000
vt 0.000000 1.723047 0.000000
vt 0.000000 2.623341 0.000000
vt 0.689586 0.672180 0.000000
vt 0.475528 0.377555 0.000000
vt 1.902113 0.341081 0.000000
vt 0.769421 -0.526953 0.000000
vt 1.115773 -0.639490 0.000000
vt 2.758344 0.619287 0.000000
vt 1.175571 -1.894987 0.000000
vt 1.704750 -2.623341 0.000000
vt 0.000000 -1.450147 0.000000
vt 0.000000 -1.085970 0.000000
vt -1.175571 -1.894987 0.000000
vt -0.769421 -0.526953 0.000000
vt -1.704750 -2.623341 0.000000
vt 1.427051 0.150000 0.000000
vt 0.000000 0.150000 0.000000
vt 1.427051 -0.150000 0.000000
vt 0.000000 -0.150000 0.000000
vt 1.427051 0.150000 0.000000
vt -0.000000 0.150000 0.000000
vt 1.427051 -0.150000 0.000000
vt -0.000000 -0.150000 0.000000
vt 1.427051 0.150000 0.000000
vt -0.000000 0.150000 0.000000
vt 1.427051 -0.150000 0.000000
vt -0.000000 -0.150000 0.000000
vt 1.427051 0.150000 0.000000
vt 0.000000 0.150000 0.000000
vt 1.427051 -0.150000 0.000000
vt 0.000000 -0.150000 0.000000
vt 1.427051 0.150000 0.000000
vt 0.000000 0.150000 0.000000
vt 1.427051 -0.150000 0.000000
vt 0.000000 -0.150000 0.000000
vt 1.427051 0.150000 0.000000
vt -0.000000 0.150000 0.000000
vt 1.427051 -0.150000 0.000000
vt 0.000000 -0.150000 0.000000
vt 1.427051 0.150000 0.000000
vt -0.000000 0.150000 0.000000
vt 1.427051 -0.150000 0.000000
vt -0.000000 -0.150000 0.000000
vt 1.427051 0.150000 0.000000
vt 0.000000 0.150000 0.000000
vt 1.427051 -0.150000 0.000000
vt 0.000000 -0.150000 0.000000
vt 1.427051 0.150000 0.000000
vt 0.000000 0.150000 0.000000
vt 1.427051 -0.150000 0.000000
vt -0.000000 -0.150000 0.000000
vt 1.427051 0.150000 0.000000
vt -0.000000 0.150000 0.000000
vt 1.427051 -0.150000 0.000000
vt -0.000000 -0.150000 0.000000
vt 2.069434 0.150000 0.000000
vt -0.000000 0.150000 0.000000
vt 2.069434 -0.150000 0.000000
vt -0.000000 -0.150000 0.000000
vt 2.069434 0.150000 0.000000
vt 0.000000 0.150000 0.000000
vt 2.069434 -0.150000 0.000000
vt 0.000000 -0.150000 0.000000
vt 2.069434 0.150000 0.000000
vt 0.000000 0.150000 0.000000
vt 2.069434 -0.150000 0.000000
vt 0.000000 -0.150000 0.000000
vt 2.069434 0.150000 0.000000
vt 0.000000 0.150000 0.000000
vt 2.069434 -0.150000 0.000000
vt 0.000000 -0.150000 0.000000
vt 2.069434 0.150000 0.000000
vt 0.000000 0.150000 0.000000
vt 2.069434 -0.150000 0.000000
vt -0.000000 -0.150000 0.000000
vt 2.069434 0.150000 0.000000
vt 0.000000 0.150000 0.000000
vt 2.069434 -0.150000 0.000000
vt 0.000000 -0.150000 0.000000
vt 2.069434 0.150000 0.000000
vt 0.000000 0.150000 0.000000
vt 2.069434 -0.150000 0.000000
vt -0.000000 -0.150000 0.000000
vt 2.069434 0.150000 0.000000
vt 0.000000 0.150000 0.000000
vt 2.069434 -0.150000 0.000000
vt -0.000000 -0.150000 0.000000
vt 2.069434 0.150000 0.000000
vt 0.000000 0.150000 0.000000
vt 2.069434 -0.150000 0.000000
vt 0.000000 -0.150000 0.000000
vt 2.069434 0.150000 0.000000
vt 0.000000 0.150000 0.000000
vt 2.069434 -0.150000 0.000000
vt 0.000000 -0.150000 0.000000
vt 0.000000 1.723047 0.000000
vt 0.475528 0.377555 0.000000
vt 0.689586 0.672180 0.000000
vt 1.902113 0.341081 0.000000
vt 2.758344 0.619287 0.000000
vt 1.115773 -0.639490 0.000000
vt 0.769421 -0.526953 0.000000
vt 1.175571 -1.894987 0.000000
vt 0.000000 -1.085970 0.000000
vt -0.000000 -1.450147 0.000000
vt 1.704750 -2.623341 0.000000
vt -1.175571 -1.894987 0.000000
vt -1.704750 -2.623341 0.000000
vt -1.115773 -0.639490 0.000000
vt -0.769421 -0.526953 0.000000
vt -1.902113 0.341081 0.000000
vt -0.475528 0.377555 0.000000
vt -0.689586 0.672180 0.000000
vt -2.758344 0.619287 0.000000
vt -0.000000 2.623341 0.000000
vn 0.000000 0.000000 -0.100000
vn 0.000000 0.000000 -0.100000
vn 0.000000 0.000000 -0.100000
vn 0.000000 0.000000 -0.100000
vn 0.000000 0.000000 -0.100000
vn 0.000000 0.000000 -0.100000
vn 0.000000 0.000000 -0.100000
vn 0.000000 0.000000 -0.100000
vn 0.000000 0.000000 -0.100000
vn 0.000000 0.000000 -0.100000
vn 0.000000 0.000000 -0.100000
vn 0.000000 0.000000 -0.100000
vn 0.000000 0.000000 -0.100000
vn 0.000000 0.000000 -0.100000
vn 0.000000 0.000000 -0.100000
vn 0.000000 0.000000 -0.100000
vn 0.000000 0.000000 -0.100000
vn 0.000000 0.000000 -0.100000
vn 0.000000 0.000000 -0.100000
vn 0.000000 0.000000 -0.100000
vn -0.094285 -0.033322 0.000000
vn -0.094285 -0.033322 0.000000
vn -0.094285 -0.033322 0.000000
vn -0.094285 -0.033322 0.000000
vn 0.094285 -0.033322 0.000000
vn 0.094285 -0.033322 0.000000
vn 0.094285 -0.033322 0.000000
vn 0.094285 -0.033322 0.000000
vn 0.002556 -0.099967 0.000000
vn 0.002556 -0.099967 0.000000
vn 0.002556 -0.099967 0.000000
vn 0.002556 -0.099967 0.000000
vn 0.060827 0.079373 0.000000
vn 0.060827 0.079373 0.000000
vn 0.060827 0.079373 0.000000
vn 0.060827 0.079373 0.000000
vn 0.095864 -0.028461 0.000000
vn 0.095864 -0.028461 0.000000
vn 0.095864 -0.028461 0.000000
vn 0.095864 -0.028461 0.000000
vn -0.056692 0.082378 0.000000
vn -0.056692 0.082378 0.000000
vn -0.056692 0.082378 0.000000
vn -0.056692 0.082378 0.000000
vn 0.056692 0.082378 0.000000
vn 0.056692 0.082378 0.000000
vn 0.056692 0.082378 0.000000
vn 0.056692 0.082378 0.000000
vn -0.095864 -0.028461 0.000000
vn -0.095864 -0.028461 0.000000
vn -0.095864 -0.028461 0.000000
vn -0.095864 -0.028461 0.000000
vn -0.060827 0.079373 0.000000
vn -0.060827 0.079373 0.000000
vn -0.060827 0.079373 0.000000
vn -0.060827 0.079373 0.000000
vn -0.002556 -0.099967 0.000000
vn -0.002556 -0.099967 0.000000
vn -0.002556 -0.099967 0.000000
vn -0.002556 -0.099967 0.000000
vn 0.060827 -0.079373 0.000000
vn 0.060827 -0.079373 0.000000
vn 0.060827 -0.079373 0.000000
vn 0.060827 -0.079373 0.000000
vn 0.095864 0.028461 0.000000
vn 0.095864 0.028461 0.000000
vn 0.095864 0.028461 0.000000
vn 0.095864 0.028461 0.000000
vn -0.056692 -0.082378 0.000000
vn -0.056692 -0.082378 0.000000
vn -0.056692 -0.082378 0.000000
vn -0.056692 -0.082378 0.000000
vn 0.056692 -0.082378 0.000000
vn 0.056692 -0.082378 0.000000
vn 0.056692 -0.082378 0.000000
vn 0.056692 -0.082378 0.000000
vn -0.095864 0.028461 0.000000
vn -0.095864 0.028461 0.000000
vn -0.095864 0.028461 0.000000
vn -0.095864 0.028461 0.000000
vn -0.060827 -0.079373 0.000000
vn -0.060827 -0.079373 0.000000
vn -0.060827 -0.079373 0.000000
vn -0.060827 -0.079373 0.000000
vn -0.002556 0.099967 0.000000
vn -0.002556 0.099967 0.000000
vn -0.002556 0.099967 0.000000
vn -0.002556 0.099967 0.000000
vn -0.094285 0.033322 0.000000
vn -0.094285 0.033322 0.000000
vn -0.094285 0.033322 0.000000
vn -0.094285 0.033322 0.000000
vn 0.094285 0.033322 0.000000
vn 0.094285 0.033322 0.000000
vn 0.094285 0.033322 0.000000
vn 0.094285 0.033322 0.000000
vn 0.002556 0.099967 0.000000
vn 0.002556 0.099967 0.000000
vn 0.002556 0.099967 0.000000
vn 0.002556 0.099967 0.000000
vn 0.000000 0.000000 0.100000
vn 0.000000 0.000000 0.100000
vn 0.000000 0.000000 0.100000
vn 0.000000 0.000000 0.100000
vn 0.000000 0.000000 0.100000
vn 0.000000 0.000000 0.100000
vn 0.000000 0.000000 0.100000
vn 0.000000 0.000000 0.100000
vn 0.000000 0.000000 0.100000
vn 0.000000 0.000000 0.100000
vn 0.000000 0.000000 0.100000
vn 0.000000 0.000000 0.100000
vn 0.000000 0.000000 0.100000
vn 0.000000 0.000000 0.100000
vn 0.000000 0.000000 0.100000
vn 0.000000 0.000000 0.100000
vn 0.000000 0.000000 0.100000
vn 0.000000 0.000000 0.100000
vn 0.000000 0.000000 0.100000
vn 0.000000 0.000000 0.100000
usemtl Stahl_-_satiniert
f 2/1/1 11/2/2 1/3/3
f 1/3/3 11/2/2 12/4/4
f 1/3/3 12/4/4 13/5/5
f 2/1/1 3/6/6 11/2/2
f 11/2/2 3/6/6 20/7/7
f 20/7/7 3/6/6 19/8/8
f 19/8/8 3/6/6 4/9/9
f 19/8/8 4/9/9 5/10/10
f 6/11/11 17/12/12 5/10/10
f 5/10/10 17/12/12 18/13/13
f 5/10/10 18/13/13 19/8/8
f 6/11/11 7/14/14 17/12/12
f 17/12/12 7/14/14 16/15/15
f 16/15/15 7/14/14 15/16/16
f 15/16/16 7/14/14 8/17/17
f 15/16/16 8/17/17 9/18/18
f 10/19/19 13/5/5 9/18/18
f 9/18/18 13/5/5 14/20/20
f 9/18/18 14/20/20 15/16/16
f 10/19/19 1/3/3 13/5/5
f 21/21/21 22/22/22 2/23/23
f 2/23/23 22/22/22 3/24/24
f 22/25/25 23/26/26 3/27/27
f 3/27/27 23/26/26 4/28/28
f 23/29/29 24/30/30 4/31/31
f 4/31/31 24/30/30 5/32/32
f 24/33/33 25/34/34 5/35/35
f 5/35/35 25/34/34 6/36/36
f 25/37/37 26/38/38 6/39/39
f 6/39/39 26/38/38 7/40/40
f 26/41/41 27/42/42 7/43/43
f 7/43/43 27/42/42 8/44/44
f 27/45/45 28/46/46 8/47/47
f 8/47/47 28/46/46 9/48/48
f 28/49/49 29/50/50 9/51/51
f 9/51/51 29/50/50 10/52/52
f 29/53/53 30/54/54 10/55/55
f 10/55/55 30/54/54 1/56/56
f 30/57/57 21/58/58 1/59/59
f 1/59/59 21/58/58 2/60/60
f 31/61/61 32/62/62 12/63/63
f 12/63/63 32/62/62 13/64/64
f 32/65/65 33/66/66 13/67/67
f 13/67/67 33/66/66 14/68/68
f 33/69/69 34/70/70 14/71/71
f 14/71/71 34/70/70 15/72/72
f 34/73/73 35/74/74 15/75/75
f 15/75/75 35/74/74 16/76/76
f 35/77/77 36/78/78 16/79/79
f 16/79/79 36/78/78 17/80/80
f 36/81/81 37/82/82 17/83/83
f 17/83/83 37/82/82 18/84/84
f 37/85/85 38/86/86 18/87/87
f 18/87/87 38/86/86 19/88/88
f 38/89/89 39/90/90 19/91/91
f 19/91/91 39/90/90 20/92/92
f 39/93/93 40/94/94 20/95/95
f 20/95/95 40/94/94 11/96/96
f 40/97/97 31/98/98 11/99/99
f 11/99/99 31/98/98 12/100/100
f 22/101/101 21/102/102 40/103/103
f 40/103/103 21/102/102 30/104/104
f 40/103/103 30/104/104 31/105/105
f 31/105/105 30/104/104 32/106/106
f 32/106/106 30/104/104 29/107/107
f 32/106/106 29/107/107 28/108/108
f 27/109/109 34/110/110 28/108/108
f 28/108/108 34/110/110 33/111/111
f 28/108/108 33/111/111 32/106/106
f 27/109/109 26/112/112 34/110/110
f 34/110/110 26/112/112 35/113/113
f 35/113/113 26/112/112 36/114/114
f 36/114/114 26/112/112 25/115/115
f 36/114/114 25/115/115 24/116/116
f 23/117/117 38/118/118 24/116/116
f 24/116/116 38/118/118 37/119/119
f 24/116/116 37/119/119 36/114/114
f 23/117/117 22/101/101 38/118/118
f 38/118/118 22/101/101 39/120/120
f 39/120/120 22/101/101 40/103/103
# 40 vertices
# 120 texture params
# 120 normals
# 80 facets

# 1 groups
