{
    "asset" : {
        "generator" : "Khronos glTF Blender I/O v3.3.32",
        "version" : "2.0"
    },
    "scene" : 0,
    "scenes" : [
        {
            "name" : "Scene",
            "nodes" : [
                0,
                1
            ]
        }
    ],
    "nodes" : [
        {
            "mesh" : 0,
            "name" : "Mesh_0",
            "scale" : [
                40,
                40,
                20
            ]
        },
        {
            "mesh" : 1,
            "name" : "Mesh_1"
        }
    ],
    "materials" : [
        {
            "doubleSided" : true,
            "name" : "Material_0",
            "pbrMetallicRoughness" : {
                "baseColorFactor" : [
                    0.9999999403953552,
                    0.9999999403953552,
                    0.9999999403953552,
                    1
                ],
                "metallicFactor" : 0,
                "roughnessFactor" : 0.4000000059604645
            }
        },
        {
            "doubleSided" : true,
            "name" : "Material_1",
            "pbrMetallicRoughness" : {
                "baseColorFactor" : [
                    0.1132812574505806,
                    0.1132812574505806,
                    0.1054687574505806,
                    1
                ],
                "metallicFactor" : 0,
                "roughnessFactor" : 0.4000000059604645
            }
        }
    ],
    "meshes" : [
        {
            "name" : "Mesh_0",
            "primitives" : [
                {
                    "attributes" : {
                        "POSITION" : 0,
                        "NORMAL" : 1,
                        "TEXCOORD_0" : 2
                    },
                    "indices" : 3,
                    "material" : 0
                }
            ]
        },
        {
            "name" : "Mesh_1",
            "primitives" : [
                {
                    "attributes" : {
                        "POSITION" : 4,
                        "NORMAL" : 5,
                        "TEXCOORD_0" : 6
                    },
                    "indices" : 7,
                    "material" : 1
                }
            ]
        }
    ],
    "accessors" : [
        {
            "bufferView" : 0,
            "componentType" : 5126,
            "count" : 9177,
            "max" : [
                0.06009199097752571,
                0.048851072788238525,
                0.04526211693882942
            ],
            "min" : [
                -0.06009199097752571,
                -0.048851072788238525,
                -0.04526211693882942
            ],
            "type" : "VEC3"
        },
        {
            "bufferView" : 1,
            "componentType" : 5126,
            "count" : 9177,
            "type" : "VEC3"
        },
        {
            "bufferView" : 2,
            "componentType" : 5126,
            "count" : 9177,
            "type" : "VEC2"
        },
        {
            "bufferView" : 3,
            "componentType" : 5123,
            "count" : 43878,
            "type" : "SCALAR"
        },
        {
            "bufferView" : 4,
            "componentType" : 5126,
            "count" : 28182,
            "max" : [
                0.06049199029803276,
                0.049251072108745575,
                0.000309708557324484
            ],
            "min" : [
                -0.06049199029803276,
                -0.049251072108745575,
                -0.000309708557324484
            ],
            "type" : "VEC3"
        },
        {
            "bufferView" : 5,
            "componentType" : 5126,
            "count" : 28182,
            "type" : "VEC3"
        },
        {
            "bufferView" : 6,
            "componentType" : 5126,
            "count" : 28182,
            "type" : "VEC2"
        },
        {
            "bufferView" : 7,
            "componentType" : 5123,
            "count" : 124416,
            "type" : "SCALAR"
        }
    ],
    "bufferViews" : [
        {
            "buffer" : 0,
            "byteLength" : 110124,
            "byteOffset" : 0,
            "target" : 34962
        },
        {
            "buffer" : 0,
            "byteLength" : 110124,
            "byteOffset" : 110124,
            "target" : 34962
        },
        {
            "buffer" : 0,
            "byteLength" : 73416,
            "byteOffset" : 220248,
            "target" : 34962
        },
        {
            "buffer" : 0,
            "byteLength" : 87756,
            "byteOffset" : 293664,
            "target" : 34963
        },
        {
            "buffer" : 0,
            "byteLength" : 338184,
            "byteOffset" : 381420,
            "target" : 34962
        },
        {
            "buffer" : 0,
            "byteLength" : 338184,
            "byteOffset" : 719604,
            "target" : 34962
        },
        {
            "buffer" : 0,
            "byteLength" : 225456,
            "byteOffset" : 1057788,
            "target" : 34962
        },
        {
            "buffer" : 0,
            "byteLength" : 248832,
            "byteOffset" : 1283244,
            "target" : 34963
        }
    ],
    "buffers" : [
        {
            "byteLength" : 1532076,
            "uri" : "data:application/octet-stream;base64,"
        }
    ]
}
